<?xml version="1.0" encoding="UTF-8"?><svg xmlns="http://www.w3.org/2000/svg" xmlns:xlink="http://www.w3.org/1999/xlink" height="775.7" preserveAspectRatio="xMidYMid meet" version="1.0" viewBox="491.8 609.7 1016.4 775.7" width="1016.4" zoomAndPan="magnify"><g><g id="change1_1"><path d="M 1508.179688 1383.53125 C 1439.078125 1335.441406 1419.480469 1291.089844 1423.210938 1232.269531 C 1426.949219 1173.441406 1500.710938 953.078125 1410.140625 799.949219 C 1366.019531 733.648438 1373.019531 696.539062 1347.109375 671.328125 C 1321.199219 646.121094 1297.390625 609.699219 1196.550781 617.410156 C 1095.710938 625.109375 1034.78125 636.308594 1015.871094 723.148438 C 1003.410156 780.390625 1010.71875 811.460938 1017.160156 825.988281 C 1020.96875 834.609375 1023.28125 843.828125 1023.898438 853.238281 C 1025.839844 882.648438 1034.78125 899.328125 1041.050781 907.601562 C 1042.761719 909.851562 1046.328125 908.441406 1046.011719 905.621094 C 1039.679688 848.550781 1080 769.460938 1114.609375 744.160156 C 1151.03125 717.550781 1193.050781 737.390625 1195.378906 760.730469 C 1197.710938 784.078125 1216.859375 819.558594 1212.191406 849.441406 C 1207.519531 879.320312 1194.449219 985.761719 1211.25 1027.078125 C 1228.058594 1068.398438 1244.871094 1102.480469 1271.949219 1116.480469 C 1299.019531 1130.488281 1282.21875 1088.46875 1277.078125 1074 C 1271.949219 1059.53125 1265.410156 1007.238281 1271.480469 982.03125 C 1274.75 1031.050781 1300.890625 1061.859375 1306.960938 1069.328125 C 1313.03125 1076.800781 1336.839844 1105.75 1330.769531 1139.359375 C 1324.699219 1172.96875 1307.898438 1184.648438 1305.089844 1227.601562 C 1291.550781 1241.601562 1256.539062 1250.011719 1246.269531 1287.359375 C 1236 1324.710938 1240.199219 1334.980469 1240.199219 1334.980469 C 1213.589844 1321.898438 1182.308594 1348.519531 1178.570312 1355.988281 C 1175.769531 1367.660156 1183.710938 1364.859375 1183.710938 1364.859375 C 1205.179688 1364.859375 1285.019531 1369.519531 1289.21875 1366.261719 C 1289.328125 1366.179688 1289.441406 1366.070312 1289.550781 1365.929688 C 1308.121094 1343.75 1337.789062 1334.371094 1364.941406 1344.328125 C 1420.75 1364.820312 1496.328125 1385.351562 1508.179688 1383.53125 Z M 491.820312 1383.53125 C 560.914062 1335.441406 580.523438 1291.089844 576.789062 1232.269531 C 573.054688 1173.441406 499.289062 953.078125 589.859375 799.949219 C 633.980469 733.648438 626.976562 696.539062 652.886719 671.328125 C 678.800781 646.121094 702.609375 609.699219 803.453125 617.410156 C 904.296875 625.109375 965.222656 636.308594 984.128906 723.148438 C 996.59375 780.390625 989.277344 811.460938 982.84375 825.988281 C 979.027344 834.609375 976.722656 843.828125 976.101562 853.238281 C 974.15625 882.648438 965.222656 899.328125 958.953125 907.601562 C 957.242188 909.851562 953.675781 908.441406 953.988281 905.621094 C 960.316406 848.550781 920.003906 769.460938 885.386719 744.160156 C 848.972656 717.550781 806.953125 737.390625 804.621094 760.730469 C 802.285156 784.078125 783.144531 819.558594 787.8125 849.441406 C 792.480469 879.320312 805.554688 985.761719 788.746094 1027.078125 C 771.9375 1068.398438 755.132812 1102.480469 728.054688 1116.480469 C 700.976562 1130.488281 717.78125 1088.46875 722.917969 1074 C 728.054688 1059.53125 734.589844 1007.238281 728.519531 982.03125 C 725.253906 1031.050781 699.109375 1061.859375 693.039062 1069.328125 C 686.96875 1076.800781 663.160156 1105.75 669.230469 1139.359375 C 675.296875 1172.96875 692.105469 1184.648438 694.90625 1227.601562 C 708.445312 1241.601562 743.460938 1250.011719 753.730469 1287.359375 C 764.003906 1324.710938 759.800781 1334.980469 759.800781 1334.980469 C 786.410156 1321.898438 817.691406 1348.519531 821.425781 1355.988281 C 824.226562 1367.660156 816.289062 1364.859375 816.289062 1364.859375 C 794.816406 1364.859375 714.980469 1369.519531 710.777344 1366.261719 C 710.675781 1366.179688 710.566406 1366.070312 710.449219 1365.929688 C 691.882812 1343.75 662.214844 1334.371094 635.0625 1344.328125 C 579.253906 1364.820312 503.675781 1385.351562 491.820312 1383.53125" fill="inherit"/></g><g id="change2_1"><path d="M 1128.308594 1009.140625 C 1111.75 994.058594 1090.921875 986.628906 1070.160156 986.628906 C 1046.660156 986.628906 1023.25 996.148438 1006.191406 1014.898438 C 1002.941406 1018.46875 997.324219 1018.46875 994.074219 1014.898438 C 977.015625 996.148438 953.601562 986.628906 930.101562 986.628906 C 909.34375 986.628906 888.515625 994.058594 871.949219 1009.140625 C 836.636719 1041.269531 834.054688 1095.949219 866.1875 1131.261719 L 883.25 1150.019531 L 994.078125 1271.820312 C 997.324219 1275.390625 1002.941406 1275.390625 1006.191406 1271.820312 L 1117.011719 1150.011719 L 1134.070312 1131.261719 C 1166.210938 1095.949219 1163.628906 1041.269531 1128.308594 1009.140625 Z M 1096.019531 762.179688 L 1096.03125 762.179688 C 1102.191406 754.769531 1108.480469 748.621094 1114.601562 744.148438 C 1151.019531 717.539062 1193.039062 737.390625 1195.378906 760.738281 C 1196.101562 767.988281 1198.460938 776.441406 1201.21875 785.511719 L 1201.21875 785.5 C 1222.691406 691.449219 1143.320312 651.25 1099.199219 665.261719 C 1055.078125 679.261719 1053.679688 771.691406 1096.019531 762.179688 Z M 903.980469 762.179688 L 903.96875 762.179688 C 897.804688 754.769531 891.515625 748.621094 885.394531 744.148438 C 848.980469 717.539062 806.964844 737.390625 804.625 760.738281 C 803.894531 767.988281 801.542969 776.441406 798.785156 785.511719 L 798.785156 785.5 C 777.3125 691.449219 856.683594 651.25 900.804688 665.261719 C 944.921875 679.261719 946.320312 771.691406 903.980469 762.179688" fill="#e3a72f"/></g></g></svg>